<mxfile host="app.diagrams.net" modified="2023-07-13T00:06:32.213Z" agent="Mozilla/5.0 (X11; Linux x86_64) AppleWebKit/537.36 (KHTML, like Gecko) Chrome/112.0.0.0 Safari/537.36" etag="y6T76A6ZWtUp9y3XhDBl" version="21.6.2" type="device">
  <diagram name="Page-1" id="-WhOwhmMR18s3AXCzHQL">
    <mxGraphModel dx="1841" dy="1689" grid="1" gridSize="10" guides="1" tooltips="1" connect="1" arrows="1" fold="1" page="1" pageScale="1" pageWidth="1700" pageHeight="1100" math="0" shadow="0">
      <root>
        <mxCell id="0" />
        <mxCell id="1" parent="0" />
        <mxCell id="DkB-3iO870HZGzdMPwxC-2" value="" style="rounded=1;whiteSpace=wrap;html=1;strokeWidth=2;dashed=1;dashPattern=1 4;fillColor=#E6E6E6;strokeColor=none;shadow=0;" parent="1" vertex="1">
          <mxGeometry x="1260" y="380" width="240" height="240" as="geometry" />
        </mxCell>
        <mxCell id="7krcvtPmVe8s60KPFWGB-60" value="" style="rounded=0;whiteSpace=wrap;html=1;labelBorderColor=none;strokeWidth=2;dashed=1;" parent="1" vertex="1">
          <mxGeometry x="680" y="360" width="540" height="240" as="geometry" />
        </mxCell>
        <mxCell id="7krcvtPmVe8s60KPFWGB-20" value="" style="rounded=0;whiteSpace=wrap;html=1;labelBorderColor=none;strokeWidth=2;dashed=1;" parent="1" vertex="1">
          <mxGeometry x="380" y="360" width="250" height="210" as="geometry" />
        </mxCell>
        <mxCell id="7krcvtPmVe8s60KPFWGB-34" style="edgeStyle=orthogonalEdgeStyle;rounded=0;orthogonalLoop=1;jettySize=auto;html=1;strokeWidth=3;shadow=1;endSize=6;startSize=6;strokeColor=#3399FF;" parent="1" source="Ar0c-4erhAiAn8HWJEN9-1" target="7krcvtPmVe8s60KPFWGB-1" edge="1">
          <mxGeometry relative="1" as="geometry">
            <Array as="points">
              <mxPoint x="350" y="310" />
              <mxPoint x="350" y="420" />
            </Array>
          </mxGeometry>
        </mxCell>
        <mxCell id="7krcvtPmVe8s60KPFWGB-80" style="edgeStyle=orthogonalEdgeStyle;rounded=0;orthogonalLoop=1;jettySize=auto;html=1;entryX=0;entryY=0.25;entryDx=0;entryDy=0;strokeWidth=3;shadow=1;strokeColor=#3399FF;" parent="1" source="Ar0c-4erhAiAn8HWJEN9-1" target="7krcvtPmVe8s60KPFWGB-48" edge="1">
          <mxGeometry relative="1" as="geometry">
            <Array as="points">
              <mxPoint x="650" y="310" />
              <mxPoint x="650" y="430" />
            </Array>
          </mxGeometry>
        </mxCell>
        <mxCell id="Ar0c-4erhAiAn8HWJEN9-1" value="Claim" style="shape=note;size=20;whiteSpace=wrap;html=1;strokeWidth=2;shadow=1;fillColor=#CCE5FF;fontColor=#003366;strokeColor=#003366;" parent="1" vertex="1">
          <mxGeometry x="250" y="270" width="60" height="80" as="geometry" />
        </mxCell>
        <mxCell id="7krcvtPmVe8s60KPFWGB-35" style="edgeStyle=orthogonalEdgeStyle;rounded=0;orthogonalLoop=1;jettySize=auto;html=1;strokeWidth=3;shadow=1;" parent="1" source="7krcvtPmVe8s60KPFWGB-1" target="7krcvtPmVe8s60KPFWGB-3" edge="1">
          <mxGeometry relative="1" as="geometry" />
        </mxCell>
        <mxCell id="7krcvtPmVe8s60KPFWGB-1" value="&lt;font style=&quot;font-size: 16px;&quot;&gt;duckduckgo-search API&lt;/font&gt;" style="ellipse;shape=cloud;whiteSpace=wrap;html=1;align=center;strokeWidth=2;shadow=1;" parent="1" vertex="1">
          <mxGeometry x="440" y="370" width="130" height="100" as="geometry" />
        </mxCell>
        <mxCell id="7krcvtPmVe8s60KPFWGB-59" style="edgeStyle=orthogonalEdgeStyle;rounded=0;orthogonalLoop=1;jettySize=auto;html=1;entryX=0.5;entryY=0;entryDx=0;entryDy=0;strokeWidth=3;shadow=1;" parent="1" source="7krcvtPmVe8s60KPFWGB-3" target="7krcvtPmVe8s60KPFWGB-51" edge="1">
          <mxGeometry relative="1" as="geometry" />
        </mxCell>
        <mxCell id="7krcvtPmVe8s60KPFWGB-3" value="&lt;font style=&quot;font-size: 18px;&quot;&gt;URL Filter&lt;/font&gt;" style="rounded=1;arcSize=10;whiteSpace=wrap;html=1;align=center;shadow=0;strokeWidth=2;" parent="1" vertex="1">
          <mxGeometry x="455" y="510" width="100" height="40" as="geometry" />
        </mxCell>
        <mxCell id="7krcvtPmVe8s60KPFWGB-23" value="Web Searcher" style="text;html=1;strokeColor=none;fillColor=none;align=left;verticalAlign=middle;whiteSpace=wrap;rounded=0;fontStyle=3;fontSize=20;" parent="1" vertex="1">
          <mxGeometry x="380" y="330" width="150" height="30" as="geometry" />
        </mxCell>
        <mxCell id="7krcvtPmVe8s60KPFWGB-37" value="Evidence Selector" style="text;html=1;strokeColor=none;fillColor=none;align=left;verticalAlign=middle;whiteSpace=wrap;rounded=0;fontStyle=3;fontSize=20;" parent="1" vertex="1">
          <mxGeometry x="680" y="330" width="200" height="30" as="geometry" />
        </mxCell>
        <mxCell id="7krcvtPmVe8s60KPFWGB-95" style="edgeStyle=orthogonalEdgeStyle;rounded=0;orthogonalLoop=1;jettySize=auto;html=1;exitX=1;exitY=0.5;exitDx=0;exitDy=0;strokeWidth=3;shadow=1;strokeColor=#FF3333;" parent="1" source="7krcvtPmVe8s60KPFWGB-48" edge="1">
          <mxGeometry relative="1" as="geometry">
            <mxPoint x="1290" y="480" as="targetPoint" />
          </mxGeometry>
        </mxCell>
        <mxCell id="7krcvtPmVe8s60KPFWGB-48" value="Semantic Search" style="swimlane;fontStyle=0;fontSize=18;rounded=1;strokeWidth=2;startSize=30;" parent="1" vertex="1">
          <mxGeometry x="700" y="380" width="500" height="200" as="geometry" />
        </mxCell>
        <mxCell id="7krcvtPmVe8s60KPFWGB-47" value="Filipino &lt;br&gt;RoBERTa&lt;br&gt;Sentence&lt;br&gt;Transformer" style="shape=cube;whiteSpace=wrap;html=1;boundedLbl=1;backgroundOutline=1;darkOpacity=0.05;darkOpacity2=0.1;strokeWidth=2;" parent="7krcvtPmVe8s60KPFWGB-48" vertex="1">
          <mxGeometry x="20" y="50" width="140" height="110" as="geometry" />
        </mxCell>
        <mxCell id="7krcvtPmVe8s60KPFWGB-50" value="Cosine Similarity" style="shape=process;whiteSpace=wrap;html=1;backgroundOutline=1;strokeWidth=2;" parent="7krcvtPmVe8s60KPFWGB-48" vertex="1">
          <mxGeometry x="360" y="70" width="120" height="90" as="geometry" />
        </mxCell>
        <mxCell id="7krcvtPmVe8s60KPFWGB-88" style="edgeStyle=orthogonalEdgeStyle;rounded=0;orthogonalLoop=1;jettySize=auto;html=1;entryX=-0.014;entryY=0.386;entryDx=0;entryDy=0;entryPerimeter=0;strokeWidth=3;shadow=1;" parent="7krcvtPmVe8s60KPFWGB-48" edge="1">
          <mxGeometry relative="1" as="geometry">
            <mxPoint x="162" y="130" as="sourcePoint" />
            <mxPoint x="360" y="130" as="targetPoint" />
          </mxGeometry>
        </mxCell>
        <mxCell id="7krcvtPmVe8s60KPFWGB-90" style="edgeStyle=orthogonalEdgeStyle;rounded=0;orthogonalLoop=1;jettySize=auto;html=1;entryX=-0.014;entryY=0.386;entryDx=0;entryDy=0;entryPerimeter=0;strokeWidth=3;shadow=1;strokeColor=#3399FF;" parent="7krcvtPmVe8s60KPFWGB-48" edge="1">
          <mxGeometry relative="1" as="geometry">
            <mxPoint x="162" y="99.32999999999998" as="sourcePoint" />
            <mxPoint x="360" y="99.32999999999998" as="targetPoint" />
          </mxGeometry>
        </mxCell>
        <mxCell id="7krcvtPmVe8s60KPFWGB-85" value="Claim Sentence Embeddings" style="text;html=1;strokeColor=none;fillColor=none;align=center;verticalAlign=middle;whiteSpace=wrap;rounded=0;strokeWidth=1;shadow=0;fontColor=#003366;" parent="7krcvtPmVe8s60KPFWGB-48" vertex="1">
          <mxGeometry x="185" y="60" width="150" height="30" as="geometry" />
        </mxCell>
        <mxCell id="7krcvtPmVe8s60KPFWGB-96" style="edgeStyle=orthogonalEdgeStyle;rounded=0;orthogonalLoop=1;jettySize=auto;html=1;entryX=0;entryY=0.75;entryDx=0;entryDy=0;strokeWidth=3;shadow=1;" parent="1" source="7krcvtPmVe8s60KPFWGB-51" target="7krcvtPmVe8s60KPFWGB-48" edge="1">
          <mxGeometry relative="1" as="geometry" />
        </mxCell>
        <mxCell id="7krcvtPmVe8s60KPFWGB-51" value="Preliminary Evidences" style="swimlane;fontStyle=0;fontSize=18;strokeWidth=2;fillColor=#CCCCCC;shadow=0;" parent="1" vertex="1">
          <mxGeometry x="405" y="590" width="200" height="210" as="geometry" />
        </mxCell>
        <mxCell id="7krcvtPmVe8s60KPFWGB-52" value="Web Page 1" style="whiteSpace=wrap;html=1;align=center;" parent="7krcvtPmVe8s60KPFWGB-51" vertex="1">
          <mxGeometry x="10" y="30" width="180" height="20" as="geometry" />
        </mxCell>
        <mxCell id="7krcvtPmVe8s60KPFWGB-53" value="Web Page 2" style="whiteSpace=wrap;html=1;align=center;" parent="7krcvtPmVe8s60KPFWGB-51" vertex="1">
          <mxGeometry x="10" y="60" width="180" height="20" as="geometry" />
        </mxCell>
        <mxCell id="7krcvtPmVe8s60KPFWGB-54" value="Web Page 3" style="whiteSpace=wrap;html=1;align=center;" parent="7krcvtPmVe8s60KPFWGB-51" vertex="1">
          <mxGeometry x="10" y="90" width="180" height="20" as="geometry" />
        </mxCell>
        <mxCell id="7krcvtPmVe8s60KPFWGB-56" value="â‹®" style="whiteSpace=wrap;html=1;align=center;strokeColor=none;" parent="7krcvtPmVe8s60KPFWGB-51" vertex="1">
          <mxGeometry x="10" y="120" width="180" height="20" as="geometry" />
        </mxCell>
        <mxCell id="7krcvtPmVe8s60KPFWGB-57" value="Web Page 4" style="whiteSpace=wrap;html=1;align=center;" parent="7krcvtPmVe8s60KPFWGB-51" vertex="1">
          <mxGeometry x="10" y="150" width="180" height="20" as="geometry" />
        </mxCell>
        <mxCell id="7krcvtPmVe8s60KPFWGB-58" value="Web Page 5" style="whiteSpace=wrap;html=1;align=center;" parent="7krcvtPmVe8s60KPFWGB-51" vertex="1">
          <mxGeometry x="10" y="180" width="180" height="20" as="geometry" />
        </mxCell>
        <mxCell id="7krcvtPmVe8s60KPFWGB-61" value="Top 5 Similarity Scores" style="swimlane;fontStyle=0;fontSize=18;strokeWidth=2;fillColor=#660000;shadow=0;strokeColor=#000000;gradientColor=none;fontColor=#FFFFFF;" parent="1" vertex="1">
          <mxGeometry x="1290" y="110" width="200" height="180" as="geometry" />
        </mxCell>
        <mxCell id="DkB-3iO870HZGzdMPwxC-1" value="" style="edgeStyle=orthogonalEdgeStyle;rounded=0;orthogonalLoop=1;jettySize=auto;html=1;" parent="1" source="7krcvtPmVe8s60KPFWGB-76" target="7krcvtPmVe8s60KPFWGB-85" edge="1">
          <mxGeometry relative="1" as="geometry" />
        </mxCell>
        <mxCell id="7krcvtPmVe8s60KPFWGB-76" value="Preliminary Evidences Sentence Embeddings" style="text;html=1;strokeColor=none;fillColor=none;align=center;verticalAlign=middle;whiteSpace=wrap;rounded=0;" parent="1" vertex="1">
          <mxGeometry x="865" y="530" width="190" height="30" as="geometry" />
        </mxCell>
        <mxCell id="7krcvtPmVe8s60KPFWGB-62" value="Evidence 1" style="whiteSpace=wrap;html=1;align=center;fillColor=#FFCCCC;strokeColor=#660000;fontColor=#660000;" parent="1" vertex="1">
          <mxGeometry x="1290" y="410" width="180" height="20" as="geometry" />
        </mxCell>
        <mxCell id="7krcvtPmVe8s60KPFWGB-63" value="Evidence 2" style="whiteSpace=wrap;html=1;align=center;fillColor=#FFCCCC;strokeColor=#660000;fontColor=#660000;" parent="1" vertex="1">
          <mxGeometry x="1290" y="440" width="180" height="20" as="geometry" />
        </mxCell>
        <mxCell id="7krcvtPmVe8s60KPFWGB-64" value="Evidence 3" style="whiteSpace=wrap;html=1;align=center;fillColor=#FFCCCC;strokeColor=#660000;fontColor=#660000;" parent="1" vertex="1">
          <mxGeometry x="1290" y="470" width="180" height="20" as="geometry" />
        </mxCell>
        <mxCell id="7krcvtPmVe8s60KPFWGB-66" value="Evidence 4" style="whiteSpace=wrap;html=1;align=center;fillColor=#FFCCCC;strokeColor=#660000;fontColor=#660000;" parent="1" vertex="1">
          <mxGeometry x="1290" y="500" width="180" height="20" as="geometry" />
        </mxCell>
        <mxCell id="7krcvtPmVe8s60KPFWGB-67" value="Evidence 5" style="whiteSpace=wrap;html=1;align=center;fillColor=#FFCCCC;strokeColor=#660000;fontColor=#660000;" parent="1" vertex="1">
          <mxGeometry x="1290" y="530" width="180" height="20" as="geometry" />
        </mxCell>
        <mxCell id="DkB-3iO870HZGzdMPwxC-3" style="edgeStyle=orthogonalEdgeStyle;rounded=0;orthogonalLoop=1;jettySize=auto;html=1;exitX=1;exitY=0.5;exitDx=0;exitDy=0;strokeWidth=3;shadow=1;strokeColor=#FF3333;" parent="1" edge="1">
          <mxGeometry relative="1" as="geometry">
            <mxPoint x="1290" y="509" as="targetPoint" />
            <mxPoint x="1200" y="509" as="sourcePoint" />
          </mxGeometry>
        </mxCell>
        <mxCell id="DkB-3iO870HZGzdMPwxC-4" style="edgeStyle=orthogonalEdgeStyle;rounded=0;orthogonalLoop=1;jettySize=auto;html=1;exitX=1;exitY=0.5;exitDx=0;exitDy=0;strokeWidth=3;shadow=1;strokeColor=#FF3333;" parent="1" edge="1">
          <mxGeometry relative="1" as="geometry">
            <mxPoint x="1290" y="539.5" as="targetPoint" />
            <mxPoint x="1200" y="539.5" as="sourcePoint" />
          </mxGeometry>
        </mxCell>
        <mxCell id="DkB-3iO870HZGzdMPwxC-5" style="edgeStyle=orthogonalEdgeStyle;rounded=0;orthogonalLoop=1;jettySize=auto;html=1;exitX=1;exitY=0.5;exitDx=0;exitDy=0;strokeWidth=3;shadow=1;strokeColor=#FF3333;" parent="1" edge="1">
          <mxGeometry relative="1" as="geometry">
            <mxPoint x="1290" y="449.5" as="targetPoint" />
            <mxPoint x="1200" y="449.5" as="sourcePoint" />
          </mxGeometry>
        </mxCell>
        <mxCell id="DkB-3iO870HZGzdMPwxC-6" style="edgeStyle=orthogonalEdgeStyle;rounded=0;orthogonalLoop=1;jettySize=auto;html=1;exitX=1;exitY=0.5;exitDx=0;exitDy=0;strokeWidth=3;shadow=1;strokeColor=#FF3333;" parent="1" edge="1">
          <mxGeometry relative="1" as="geometry">
            <mxPoint x="1290" y="419.5" as="targetPoint" />
            <mxPoint x="1200" y="419.5" as="sourcePoint" />
          </mxGeometry>
        </mxCell>
        <mxCell id="DkB-3iO870HZGzdMPwxC-7" value="&lt;i&gt;Top 5 Similarity Scores&lt;/i&gt;" style="text;html=1;strokeColor=none;fillColor=none;align=center;verticalAlign=middle;whiteSpace=wrap;rounded=0;" parent="1" vertex="1">
          <mxGeometry x="1285" y="570" width="190" height="30" as="geometry" />
        </mxCell>
      </root>
    </mxGraphModel>
  </diagram>
</mxfile>
